<svg xmlns="http://www.w3.org/2000/svg" viewBox="0 0 1400 620" role="img" aria-labelledby="title desc">
  <title id="title">Jason Shadow stage banner placeholder</title>
  <desc id="desc">Dark red stage with spotlight beams and a central vintage microphone.</desc>
  <defs>
    <radialGradient id="ember" cx="50%" cy="80%" r="65%"><stop offset="0" stop-color="#ff5a22" stop-opacity=".55"/><stop offset=".45" stop-color="#690916" stop-opacity=".7"/><stop offset="1" stop-color="#090003"/></radialGradient>
    <linearGradient id="beam" x1="0" x2="1"><stop offset="0" stop-color="#f8d7a4" stop-opacity="0"/><stop offset=".5" stop-color="#f8d7a4" stop-opacity=".20"/><stop offset="1" stop-color="#f8d7a4" stop-opacity="0"/></linearGradient>
    <filter id="glow"><feGaussianBlur stdDeviation="9" result="blur"/><feMerge><feMergeNode in="blur"/><feMergeNode in="SourceGraphic"/></feMerge></filter>
  </defs>
  <rect width="1400" height="620" fill="url(#ember)"/>
  <path d="M170 0h190L650 620H430z" fill="url(#beam)" opacity=".6"/>
  <path d="M1040 0h190L970 620H750z" fill="url(#beam)" opacity=".55"/>
  <path d="M0 492c202-76 424-90 664-42 259 52 497 25 736-70v240H0z" fill="#120005" opacity=".72"/>
  <g transform="translate(700 300)" filter="url(#glow)">
    <rect x="-34" y="-122" width="68" height="190" rx="34" fill="#1a0307" stroke="#f8d7a4" stroke-width="8"/>
    <path d="M-18-84h36M-20-44h40M-18-4h36" stroke="#f8d7a4" stroke-width="6" stroke-linecap="round" opacity=".7"/>
    <path d="M-86-14c0 68 38 112 86 112s86-44 86-112" fill="none" stroke="#f8d7a4" stroke-width="10" stroke-linecap="round"/>
    <path d="M0 98v96M-72 194H72" stroke="#f8d7a4" stroke-width="12" stroke-linecap="round"/>
  </g>
</svg>
