<svg xmlns="http://www.w3.org/2000/svg" viewBox="0 0 900 700" role="img" aria-labelledby="title desc">
  <title id="title">Corissia Resorts placeholder</title>
  <desc id="desc">Warm seaside resort illustration placeholder for the Corissia Resorts affiliate tile.</desc>
  <defs>
    <linearGradient id="sky" x1="0" x2="0" y1="0" y2="1">
      <stop offset="0" stop-color="#ffd7a4"/>
      <stop offset="0.58" stop-color="#ff8b4a"/>
      <stop offset="1" stop-color="#421018"/>
    </linearGradient>
    <linearGradient id="sea" x1="0" x2="1">
      <stop offset="0" stop-color="#224f68"/>
      <stop offset="1" stop-color="#5dc4c2"/>
    </linearGradient>
  </defs>
  <rect width="900" height="700" fill="url(#sky)"/>
  <circle cx="710" cy="148" r="82" fill="#fff0d2" opacity=".88"/>
  <path d="M0 410c130-48 240-52 360-18 168 48 293 42 540-36v344H0z" fill="url(#sea)" opacity=".95"/>
  <path d="M0 475c160-42 264-35 400 4 142 41 290 21 500-44v265H0z" fill="#130005" opacity=".28"/>
  <path d="M130 352h210v158H130z" fill="#fff0d2"/>
  <path d="M165 306h140l54 46H112z" fill="#f8d7a4"/>
  <path d="M410 314h250v196H410z" fill="#fff0d2"/>
  <path d="M446 266h176l68 48H382z" fill="#f8d7a4"/>
  <g fill="#690916" opacity=".74">
    <rect x="178" y="394" width="44" height="116" rx="22"/>
    <rect x="268" y="394" width="44" height="116" rx="22"/>
    <rect x="464" y="370" width="48" height="140" rx="24"/>
    <rect x="560" y="370" width="48" height="140" rx="24"/>
  </g>
  <text x="54" y="620" fill="#fff0d2" font-family="Georgia, serif" font-size="58" font-weight="700">Corissia Resorts</text>
</svg>
