<svg xmlns="http://www.w3.org/2000/svg" viewBox="0 0 96 96" role="img" aria-labelledby="title">
  <title>Exclusive content icon</title>
  <defs>
    <linearGradient id="gold" x1="18" y1="13" x2="78" y2="82" gradientUnits="userSpaceOnUse">
      <stop stop-color="#fff4ca"/>
      <stop offset="0.55" stop-color="#ffd67e"/>
      <stop offset="1" stop-color="#f4a94f"/>
    </linearGradient>
    <filter id="glow" x="-30%" y="-30%" width="160%" height="160%">
      <feGaussianBlur stdDeviation="2.4" result="blur"/>
      <feMerge>
        <feMergeNode in="blur"/>
        <feMergeNode in="SourceGraphic"/>
      </feMerge>
    </filter>
  </defs>
  <path
    fill="url(#gold)"
    filter="url(#glow)"
    d="M38.4 79.6c2.7-9.2 3-17.1 2.4-22.8-12.3-1.1-21.9-11.4-21.9-24 0-13.4 10.9-24.3 24.3-24.3 7.5 0 14.5 3.5 19.1 9.2 5.7-6 12.7-9.2 20.8-9.2h6.2c-2.2 15.7-14.8 27.5-30.4 29.1v2.8h22.7c-2.8 10.3-10.8 17.7-21.1 19.4-4.6 8.1-12 14.8-22.1 19.8Z"
  />
  <path
    fill="#321006"
    d="M43.4 34.1a7.2 7.2 0 0 0-4 13.2l-2.7 13.5h13.4l-2.7-13.5a7.2 7.2 0 0 0-4-13.2Z"
    opacity="0.92"
  />
</svg>
